<svg width="16" height="9" viewBox="0 0 16 9" fill="none" xmlns="http://www.w3.org/2000/svg">
<path d="M13.8196 7.81189C13.8864 7.87198 13.965 7.91895 14.0508 7.95013C14.1367 7.98132 14.2282 7.99609 14.32 7.99362C14.4119 7.99114 14.5023 7.97147 14.5862 7.93572C14.6701 7.89996 14.7457 7.84883 14.8088 7.78524C14.872 7.72166 14.9213 7.64686 14.954 7.56511C14.9868 7.48337 15.0023 7.39629 14.9997 7.30883C14.9971 7.22138 14.9765 7.13527 14.9389 7.05542C14.9013 6.97557 14.8476 6.90354 14.7809 6.84345L8.48455 1.18206C8.35466 1.06514 8.18268 1 8.00393 1C7.82518 1 7.65321 1.06514 7.52331 1.18206L1.22631 6.84345C1.15806 6.90315 1.10294 6.97516 1.06417 7.0553C1.02539 7.13544 1.00373 7.22212 1.00044 7.3103C0.997149 7.39848 1.0123 7.48641 1.045 7.56897C1.0777 7.65153 1.12731 7.72708 1.19094 7.79124C1.25457 7.85539 1.33096 7.90687 1.41566 7.94268C1.50036 7.97849 1.5917 7.99792 1.68436 7.99984C1.77701 8.00176 1.86915 7.98614 1.95541 7.95387C2.04167 7.92161 2.12034 7.87334 2.18684 7.81189L8.00393 2.58209L13.8196 7.81189Z" fill="white" stroke="white"/>
</svg>
