<svg width="44" height="44" viewBox="0 0 44 44" fill="none" xmlns="http://www.w3.org/2000/svg">
<path d="M43.3211 8.7922H39.7385C39.8432 8.64576 39.9371 8.49193 40.0195 8.33192C40.2541 7.8725 40.3908 7.36945 40.4211 6.85452C40.4514 6.33959 40.3745 5.82398 40.1954 5.34025L39.1098 2.4224C38.9298 1.93937 38.6515 1.49894 38.2925 1.12896C37.9336 0.758973 37.5018 0.467486 37.0244 0.272922C36.5462 0.0791683 36.033 -0.0132349 35.5172 0.00155757C35.0014 0.01635 34.4944 0.138016 34.028 0.35886L25.4362 4.43919C24.9976 4.12487 24.4714 3.95604 23.9317 3.95648H20.0685C19.5287 3.95615 19.0024 4.12509 18.5636 4.43953L9.97214 0.358517C9.50576 0.137813 8.99867 0.0162541 8.48292 0.00152125C7.96716 -0.0132116 7.45396 0.0792023 6.97575 0.272922C6.01264 0.664283 5.25226 1.44786 4.89038 2.42206L3.80473 5.34051C3.6256 5.82421 3.54878 6.33982 3.57912 6.85474C3.60946 7.36965 3.7463 7.87268 3.98098 8.332C4.06322 8.4921 4.15715 8.64591 4.262 8.7922H0.679081C0.589907 8.79219 0.501604 8.80974 0.419214 8.84386C0.336825 8.87798 0.261963 8.92799 0.198903 8.99104C0.135844 9.05409 0.0858217 9.12895 0.0516936 9.21133C0.0175656 9.29372 -7.14241e-10 9.38202 0 9.47119L0 14.3599C4.55634e-05 14.54 0.071606 14.7127 0.198948 14.8401C0.326291 14.9674 0.498991 15.039 0.679081 15.039C0.859185 15.039 1.03191 14.9674 1.15927 14.8401C1.28663 14.7128 1.3582 14.54 1.35825 14.3599V10.1499H6.07495C6.15057 10.1765 6.22706 10.201 6.30457 10.2225L12.0057 11.7919C10.7375 13.7364 9.62053 15.7755 8.66451 17.891H1.35808V17.076C1.35805 16.9868 1.34047 16.8986 1.30633 16.8162C1.27219 16.7339 1.22216 16.659 1.15911 16.596C1.09605 16.533 1.02119 16.483 0.938815 16.4489C0.856438 16.4148 0.76815 16.3972 0.678995 16.3973C0.589839 16.3973 0.501554 16.4148 0.419181 16.4489C0.336808 16.483 0.261959 16.533 0.198909 16.5961C0.135858 16.6591 0.0858405 16.7339 0.0517117 16.8163C0.017583 16.8987 1.12848e-05 16.9869 0 17.0761L0 18.5703C4.55634e-05 18.7504 0.071606 18.9231 0.198948 19.0504C0.326291 19.1778 0.498991 19.2493 0.679081 19.2494H3.10081V43.2908C3.1008 43.38 3.11835 43.4683 3.15248 43.5507C3.1866 43.6331 3.23662 43.708 3.29968 43.771C3.36274 43.8341 3.43761 43.8841 3.52 43.9182C3.6024 43.9524 3.69071 43.9699 3.77989 43.9699H40.2203C40.3095 43.9699 40.3978 43.9524 40.4802 43.9182C40.5626 43.8841 40.6374 43.8341 40.7005 43.771C40.7635 43.708 40.8136 43.6331 40.8477 43.5507C40.8818 43.4683 40.8994 43.38 40.8994 43.2908V39.3477C40.8993 39.1677 40.8278 38.995 40.7004 38.8676C40.5731 38.7403 40.4004 38.6687 40.2203 38.6687C40.1311 38.6686 40.0428 38.6862 39.9604 38.7203C39.878 38.7544 39.8031 38.8044 39.74 38.8675C39.6769 38.9306 39.6269 39.0054 39.5928 39.0878C39.5587 39.1702 39.5411 39.2586 39.5411 39.3477V42.6121H26.0741V19.667C27.9976 23.3103 29.2997 27.2718 29.899 31.3649C29.9226 31.5262 30.0035 31.6737 30.1269 31.7803C30.2503 31.8869 30.4079 31.9455 30.571 31.9454C30.6761 31.9454 30.7798 31.921 30.8739 31.8741C30.968 31.8272 31.0499 31.7591 31.1132 31.6751C32.0894 30.38 32.9971 28.9936 33.8165 27.5461C35.1889 28.4806 36.5213 29.5226 37.7855 30.6506C37.8896 30.7433 38.0197 30.8018 38.1581 30.8181C38.2966 30.8343 38.4367 30.8076 38.5594 30.7415C38.6821 30.6754 38.7815 30.5731 38.8442 30.4486C38.9068 30.3241 38.9295 30.1833 38.9094 30.0453C38.3672 26.347 37.3565 22.7101 35.9237 19.2494H39.5409V36.6313C39.5408 36.7205 39.5584 36.8088 39.5925 36.8912C39.6267 36.9736 39.6767 37.0485 39.7397 37.1115C39.8028 37.1746 39.8777 37.2246 39.9601 37.2587C40.0424 37.2929 40.1308 37.3104 40.2199 37.3104C40.3091 37.3104 40.3974 37.2929 40.4799 37.2588C40.5623 37.2247 40.6371 37.1747 40.7002 37.1116C40.7633 37.0485 40.8133 36.9737 40.8474 36.8912C40.8815 36.8088 40.8991 36.7205 40.899 36.6313V19.2494H43.3211C43.4102 19.2494 43.4985 19.2318 43.5809 19.1976C43.6632 19.1635 43.7381 19.1135 43.8011 19.0504C43.8641 18.9873 43.9141 18.9125 43.9482 18.8301C43.9823 18.7477 43.9999 18.6594 43.9998 18.5703V9.47119C43.9999 9.38202 43.9824 9.29371 43.9484 9.21131C43.9143 9.1289 43.8643 9.05403 43.8013 8.99096C43.7382 8.9279 43.6633 8.87788 43.581 8.84377C43.4986 8.80967 43.4103 8.79214 43.3211 8.7922ZM34.6104 1.58545C35.2164 1.29807 35.8918 1.27865 36.5131 1.53105C37.1336 1.78319 37.6035 2.26754 37.8368 2.89575L38.9222 5.81325C39.1558 6.44163 39.1158 7.11641 38.8103 7.7129C38.5052 8.30914 37.9812 8.73539 37.3353 8.91303L26.5256 11.889V8.62531C28.9554 7.13755 35.0126 4.06888 36.5201 6.19688C36.5717 6.26966 36.637 6.33158 36.7124 6.3791C36.7879 6.42662 36.8719 6.45882 36.9598 6.47385C37.0477 6.48887 37.1377 6.48644 37.2247 6.46668C37.3116 6.44692 37.3938 6.41023 37.4666 6.3587C37.7727 6.14187 37.8452 5.71786 37.6283 5.41209C36.4648 3.76948 34.0129 3.68964 30.3401 5.17508C28.8271 5.78669 27.4302 6.53324 26.5256 7.05127V6.55008C26.5256 6.18656 26.45 5.84006 26.3144 5.52553L34.6104 1.58545ZM20.0685 5.31438H23.9317C24.6132 5.31438 25.1673 5.86902 25.1673 6.55017V12.1633C25.1673 12.8448 24.6131 13.3991 23.9317 13.3991H20.0685C19.387 13.3991 18.8328 12.8448 18.8328 12.1633V6.55017C18.8328 5.86868 19.3871 5.31438 20.0685 5.31438ZM18.9272 17.891C19.5779 16.8102 20.2846 15.7642 21.0444 14.7572H22.9551C23.7152 15.7641 24.4219 16.8101 25.0724 17.891H18.9272ZM5.18979 7.7129C4.88428 7.11641 4.84432 6.44163 5.07764 5.81351L6.16363 2.89532C6.39652 2.26763 6.86661 1.78319 7.4869 1.53105C8.10798 1.27865 8.78371 1.29816 9.38931 1.58545L17.6857 5.52622C17.546 5.84961 17.4742 6.19818 17.4745 6.55042V7.09011C16.5729 6.57122 15.1445 5.80251 13.5929 5.17508C9.92032 3.68964 7.46808 3.76948 6.30457 5.41209C6.08775 5.71786 6.1602 6.14187 6.46639 6.3587C6.53914 6.41026 6.62133 6.44698 6.70828 6.46676C6.79523 6.48653 6.88522 6.48897 6.97311 6.47395C7.061 6.45892 7.14507 6.42671 7.2205 6.37917C7.29594 6.33163 7.36126 6.26968 7.41274 6.19688C8.93444 4.04877 15.0914 7.19556 17.4745 8.66664V11.889L6.66525 8.91337C6.019 8.73548 5.49486 8.30914 5.18979 7.7129ZM17.7793 13.3814C18.1173 14.0139 18.7095 14.4909 19.4189 14.6746C16.2429 19.1057 14.0564 24.1972 13.0309 29.5489C12.3031 28.4845 11.6311 27.3831 11.0177 26.2489C10.9732 26.1663 10.9119 26.0938 10.8379 26.0361C10.7638 25.9783 10.6786 25.9366 10.5876 25.9135C10.4966 25.8904 10.4018 25.8864 10.3092 25.9019C10.2166 25.9173 10.1282 25.9518 10.0496 26.0031C8.91863 26.7407 7.81123 27.5498 6.74165 28.4186C7.84312 22.6372 10.1188 17.0627 13.3821 12.1709L17.7793 13.3814ZM4.45897 19.2494H8.07644C6.64377 22.7101 5.63297 26.3466 5.09044 30.0453C5.07021 30.1832 5.09292 30.3241 5.1555 30.4486C5.21807 30.5732 5.31748 30.6755 5.44021 30.7416C5.56299 30.8077 5.70313 30.8344 5.84162 30.8181C5.9801 30.8018 6.11022 30.7433 6.21434 30.6506C7.47857 29.5226 8.81095 28.4806 10.1836 27.5461C11.0031 28.9936 11.9105 30.3797 12.887 31.6751C12.9502 31.7591 13.0321 31.8273 13.1262 31.8742C13.2203 31.9212 13.324 31.9456 13.4292 31.9457C13.4852 31.9457 13.5416 31.9386 13.5973 31.9242C13.7271 31.8911 13.8441 31.8203 13.9337 31.7208C14.0233 31.6213 14.0815 31.4975 14.1009 31.365C14.7004 27.2718 16.0026 23.31 17.9258 19.6667V42.6121H4.45906L4.45897 19.2494ZM19.2839 42.6121V19.2494H24.7161V42.6121H19.2839ZM33.9504 26.0032C33.8718 25.952 33.7834 25.9176 33.6908 25.9023C33.5982 25.8869 33.5035 25.8909 33.4125 25.914C33.3215 25.9371 33.2363 25.9788 33.1623 26.0364C33.0882 26.0941 33.0269 26.1665 32.9823 26.249C32.369 27.3832 31.697 28.4846 30.9691 29.5489C29.9436 24.1968 27.7571 19.1057 24.5808 14.6749C25.2901 14.4916 25.8827 14.0142 26.2207 13.3815L30.619 12.1706C33.8816 17.0634 36.1572 22.6378 37.2587 28.4185C36.1888 27.5498 35.0814 26.7407 33.9504 26.0032ZM42.6418 17.8911H35.3359C34.3799 15.7756 33.263 13.7366 31.9951 11.7919L37.6955 10.2225C37.773 10.2011 37.8496 10.1766 37.9251 10.15H42.6419L42.6418 17.8911Z" fill="#302100"/>
</svg>
