<svg width="47" height="58" viewBox="0 0 47 58" fill="none" xmlns="http://www.w3.org/2000/svg">
<path d="M34.5454 20.4646C34.5454 18.2551 33.8902 16.0953 32.6627 14.2582C31.4352 12.4211 29.6905 10.9893 27.6492 10.1437C25.608 9.29821 23.3618 9.07699 21.1948 9.50803C19.0278 9.93907 17.0373 11.003 15.475 12.5653C13.9126 14.1277 12.8487 16.1182 12.4176 18.2852C11.9866 20.4522 12.2078 22.6983 13.0534 24.7396C13.8989 26.7809 15.3307 28.5256 17.1678 29.7531C19.0049 30.9806 21.1647 31.6358 23.3742 31.6358C26.3359 31.6324 29.1754 30.4543 31.2697 28.3601C33.364 26.2658 34.542 23.4263 34.5454 20.4646ZM23.3742 30.0358C21.4812 30.0358 19.6307 29.4744 18.0567 28.4227C16.4827 27.371 15.256 25.8762 14.5316 24.1273C13.8071 22.3784 13.6176 20.454 13.9869 18.5973C14.3562 16.7407 15.2678 15.0353 16.6063 13.6967C17.9449 12.3582 19.6503 11.4466 21.5069 11.0773C23.3636 10.708 25.288 10.8975 27.0369 11.6219C28.7858 12.3464 30.2807 13.5731 31.3324 15.1471C32.3841 16.7211 32.9454 18.5716 32.9454 20.4646C32.9425 23.0021 31.9332 25.4349 30.1389 27.2293C28.3446 29.0236 25.9118 30.0329 23.3742 30.0358ZM29.1892 18.4236L25.8529 17.6185L24.0558 14.6937C23.9842 14.5772 23.884 14.481 23.7647 14.4143C23.6453 14.3476 23.5109 14.3125 23.3742 14.3125C23.2375 14.3125 23.1031 14.3476 22.9837 14.4143C22.8644 14.481 22.7642 14.5772 22.6926 14.6937L20.8961 17.6185L17.5592 18.4236C17.4262 18.4556 17.3038 18.5211 17.2034 18.6139C17.103 18.7068 17.0282 18.8238 16.9859 18.9538C16.9437 19.0838 16.9355 19.2224 16.9621 19.3565C16.9887 19.4906 17.0493 19.6156 17.138 19.7196L19.364 22.3359L19.099 25.758C19.0883 25.8944 19.1127 26.0312 19.1699 26.1554C19.2272 26.2796 19.3154 26.387 19.426 26.4674C19.5366 26.5478 19.6661 26.5985 19.8019 26.6146C19.9377 26.6306 20.0754 26.6116 20.2017 26.5593L23.3742 25.246L26.5473 26.5561C26.6438 26.5963 26.7474 26.617 26.852 26.6169C26.9623 26.6169 27.0714 26.5941 27.1724 26.5499C27.2735 26.5057 27.3644 26.4411 27.4393 26.3602C27.5142 26.2792 27.5716 26.1837 27.6079 26.0795C27.6441 25.9753 27.6585 25.8648 27.65 25.7548L27.3844 22.3359L29.611 19.7228C29.6995 19.6187 29.7599 19.4937 29.7864 19.3596C29.8129 19.2255 29.8046 19.0869 29.7623 18.9569C29.72 18.827 29.6452 18.71 29.5448 18.6172C29.4445 18.5244 29.3221 18.4589 29.1892 18.4268V18.4236ZM25.9521 21.5462C25.8151 21.7074 25.7474 21.9163 25.764 22.1273L25.956 24.5804L23.6795 23.6415C23.5827 23.6014 23.479 23.5807 23.3742 23.5807C23.2694 23.5807 23.1657 23.6014 23.0689 23.6415L20.7944 24.5804L20.9864 22.1273C21.0029 21.9163 20.9352 21.7074 20.7982 21.5462L19.2001 19.6735L21.5924 19.0975C21.7979 19.0478 21.9753 18.9187 22.0859 18.7385L23.3742 16.6399L24.6625 18.7366C24.7732 18.9169 24.9509 19.0461 25.1566 19.0956L27.5483 19.6716L25.9521 21.5462ZM46.6414 51.2806L37.4177 35.3043C37.834 34.9941 38.1825 34.6021 38.4419 34.1524C38.7013 33.7028 38.8661 33.2048 38.9262 32.6892L39.5208 27.8892C39.5642 27.4899 39.7195 27.111 39.9688 26.7961L43.0286 22.8204C43.5564 22.1485 43.8422 21.3182 43.8396 20.4637C43.8371 19.6093 43.5464 18.7807 43.0145 18.1119L40.0411 14.2982C39.79 13.9856 39.6323 13.6084 39.586 13.2102L38.9384 8.23482C38.8368 7.38614 38.4517 6.59659 37.8455 5.994C37.2393 5.39141 36.4475 5.01105 35.5982 4.9145L30.7982 4.31994C30.3989 4.27666 30.0199 4.12136 29.7051 3.87194L25.7307 0.810818C25.0588 0.283125 24.2286 -0.00253804 23.3743 1.69916e-05C22.52 0.00257202 21.6915 0.293196 21.0228 0.824898L17.2084 3.79834C16.8958 4.04937 16.5187 4.20709 16.1204 4.25338L11.1451 4.90106C10.2961 5.00196 9.50603 5.38657 8.90293 5.99258C8.29983 6.59858 7.91902 7.39047 7.8222 8.23994L7.22764 13.0399C7.18429 13.4392 7.02899 13.8182 6.77964 14.1331L3.71916 18.1087C3.19123 18.7805 2.90548 19.6108 2.90815 20.4652C2.91082 21.3196 3.20176 22.1481 3.73388 22.8166L6.70668 26.631C6.95771 26.9436 7.11543 27.3207 7.16172 27.719L7.8094 32.6943C7.87211 33.2094 8.03947 33.7062 8.30119 34.1543C8.56291 34.6023 8.91346 34.9921 9.33132 35.2998L0.106996 51.2806C0.0279722 51.4176 -0.00866082 51.575 0.00172763 51.7328C0.0121161 51.8906 0.0690596 52.0418 0.165361 52.1673C0.261663 52.2928 0.392999 52.3869 0.542774 52.4378C0.692549 52.4886 0.854039 52.4939 1.00684 52.4531L7.22764 50.7891L8.89164 57.0099C8.93266 57.1626 9.01803 57.2997 9.13695 57.4039C9.25587 57.5082 9.40302 57.5748 9.5598 57.5955C9.59457 57.6003 9.62965 57.6027 9.66476 57.6025C9.80513 57.6024 9.94301 57.5654 10.0646 57.4952C10.1861 57.425 10.287 57.3241 10.3572 57.2025L20.4667 39.694L21.0177 40.1183C21.6897 40.6461 22.52 40.9318 23.3744 40.9292C24.2288 40.9267 25.0574 40.636 25.7262 40.1043L26.2721 39.6799L36.3886 57.1999C36.4588 57.3215 36.5598 57.4224 36.6813 57.4926C36.8029 57.5628 36.9407 57.5998 37.0811 57.5999C37.1162 57.6001 37.1513 57.5978 37.186 57.5929C37.3428 57.5723 37.49 57.5056 37.6089 57.4014C37.7278 57.2971 37.8132 57.16 37.8542 57.0073L39.5182 50.7865L45.739 52.4505C45.8918 52.4914 46.0533 52.4861 46.2031 52.4352C46.3528 52.3844 46.4842 52.2902 46.5805 52.1648C46.6768 52.0393 46.7337 51.8881 46.7441 51.7302C46.7545 51.5724 46.7179 51.415 46.6388 51.278L46.6414 51.2806ZM9.93996 54.7276L8.56588 49.5999C8.53869 49.4984 8.49179 49.4033 8.42783 49.3199C8.36388 49.2366 8.28413 49.1666 8.19314 49.1141C8.10215 49.0616 8.00171 49.0275 7.89754 49.0138C7.79337 49 7.68752 49.007 7.58604 49.0342L2.45772 50.4083L10.802 35.9558C10.916 35.9801 11.032 35.9997 11.1502 36.0147L15.9502 36.6092C16.3495 36.6525 16.7285 36.8078 17.0433 37.0572L19.1886 38.7084L9.93996 54.7276ZM24.7425 38.8422C24.3521 39.1527 23.8684 39.3224 23.3696 39.324C22.8707 39.3255 22.386 39.1586 21.9937 38.8505L18.018 35.7907C17.4774 35.3655 16.8289 35.0996 16.1454 35.0227L11.3454 34.4281C10.8497 34.3718 10.3875 34.1498 10.0337 33.7981C9.6799 33.4464 9.45518 32.9855 9.39596 32.4902L8.74828 27.5155C8.66708 26.8325 8.3969 26.1857 7.96812 25.6479L4.99532 21.8342C4.68422 21.4434 4.51414 20.9591 4.51263 20.4596C4.51112 19.9602 4.67826 19.4748 4.987 19.0822L8.04684 15.1071C8.47195 14.5665 8.7379 13.918 8.81484 13.2345L9.4094 8.4345C9.46569 7.9388 9.68767 7.47662 10.0394 7.12281C10.3911 6.769 10.852 6.54429 11.3473 6.48506L16.322 5.83738C17.005 5.75731 17.6521 5.48798 18.1902 5.05978L22.004 2.08698C22.3943 1.77635 22.8781 1.60654 23.3769 1.60503C23.8758 1.60352 24.3605 1.7704 24.7528 2.07866L28.7284 5.1385C29.2691 5.56361 29.9176 5.82956 30.6011 5.9065L35.4011 6.50106C35.8968 6.55732 36.3591 6.77928 36.713 7.13099C37.0669 7.4827 37.2918 7.94357 37.3512 8.43898L37.9982 13.4137C38.0794 14.0967 38.3496 14.7434 38.7784 15.2812L41.7512 19.095C42.0625 19.4856 42.2327 19.97 42.2342 20.4695C42.2357 20.9691 42.0684 21.4544 41.7595 21.847L38.6996 25.8227C38.2743 26.3632 38.0083 27.0118 37.9316 27.6953L37.3364 32.4953C37.2803 32.991 37.0583 33.4533 36.7066 33.8071C36.3548 34.1609 35.8939 34.3856 35.3985 34.4447L30.4238 35.0924C29.7417 35.1728 29.0956 35.4418 28.5582 35.8694L24.7425 38.8422ZM39.1624 49.0342C39.0609 49.0069 38.9551 48.9999 38.8509 49.0135C38.7468 49.0271 38.6463 49.0612 38.5553 49.1136C38.4643 49.1661 38.3845 49.236 38.3206 49.3194C38.2566 49.4027 38.2097 49.4978 38.1825 49.5993L36.8084 54.7276L27.5464 38.6847L29.54 37.1308C29.8526 36.8798 30.2297 36.7221 30.628 36.6758L35.6027 36.0281C35.7204 36.0127 35.8363 35.9925 35.9502 35.9673L44.2907 50.4076L39.1624 49.0342Z" fill="#4E3604"/>
</svg>
