<svg width="28" height="23" viewBox="0 0 28 23" fill="none" xmlns="http://www.w3.org/2000/svg">
<path d="M26.6596 4.22656C27.2498 6.5283 27.2498 11.3333 27.2498 11.3333C27.2498 11.3333 27.2498 16.1382 26.6596 18.44C26.3315 19.7122 25.3718 20.7133 24.1563 21.0517C21.9489 21.6665 14.3333 21.6665 14.3333 21.6665C14.3333 21.6665 6.72153 21.6665 4.51021 21.0517C3.28959 20.7081 2.33118 19.7084 2.00697 18.44C1.41669 16.1382 1.41669 11.3333 1.41669 11.3333C1.41669 11.3333 1.41669 6.5283 2.00697 4.22656C2.33506 2.95428 3.29476 1.95324 4.51021 1.61483C6.72153 1 14.3333 1 14.3333 1C14.3333 1 21.9489 1 24.1563 1.61483C25.3769 1.95841 26.3353 2.95815 26.6596 4.22656ZM11.7499 15.8541L19.4999 11.3333L11.7499 6.81246V15.8541Z" fill="#F1A501" stroke="#4E3604" stroke-width="1.5"/>
</svg>
