<svg width="16" height="16" viewBox="0 0 16 16" fill="none" xmlns="http://www.w3.org/2000/svg">
<rect width="16" height="16" fill="#FEFAF2"/>
<path d="M12.3577 5.55814L12.781 4.5H12.2166L11.7228 4.82558L11.0879 5.96512L10.5235 7.10465L10.453 7.67442H10.8057L11.5112 6.86047L12.3577 5.55814Z" fill="#F1A501"/>
<path d="M5.23267 8.97675L4.66832 8.89536L3.96287 8.73257L3.82178 8.48838L4.24505 8.32559L5.09158 8.48838L5.23267 8.73257V8.97675Z" fill="#F1A501"/>
<path d="M5.37379 8.16278L4.80943 8.04069L4.10398 7.7965L3.96289 7.43022L4.38616 7.18604L5.2327 7.43022L5.37379 7.7965V8.16278Z" fill="#F1A501"/>
<path d="M5.58542 6.77908L5.09161 6.86048L4.17453 6.61629L3.96289 6.4535L4.24507 6.29071H4.95052L5.51488 6.4535L5.58542 6.77908Z" fill="#F1A501"/>
<path fill-rule="evenodd" clip-rule="evenodd" d="M4.34892 14.5468C5.82113 14.4293 7.83183 14.2939 9.59054 14.274C12.8301 14.2381 14.1694 14.2919 14.7925 14.5687C15.4155 14.8455 14.6164 14.7898 12.6541 14.7161C10.6917 14.6424 9.04688 14.7718 7.26055 14.7898C5.56742 14.8077 2.12593 15.2378 2.2036 14.8137C1.96197 14.8176 1.78247 14.8097 1.67719 14.7957C1.37343 14.7539 1.14906 14.4691 1.05241 14.0549C0.921236 13.4894 1.02824 12.6829 1.4649 12.0576C1.74105 11.6593 2.09141 11.3247 2.44005 10.9563C2.94402 10.4266 3.44971 9.82723 3.72068 8.84348C3.72759 8.81759 3.73449 8.79171 3.74139 8.76582C3.66373 8.71803 3.61195 8.67023 3.58433 8.62841C3.52565 8.54079 3.52738 8.45516 3.56362 8.38347C3.58779 8.33369 3.63784 8.28191 3.71723 8.24806C3.7552 8.23213 3.80007 8.21819 3.85358 8.21022C3.87774 8.06485 3.89845 7.91151 3.91571 7.75619C3.78799 7.68251 3.74657 7.58692 3.74484 7.51523C3.74312 7.4515 3.76901 7.3838 3.83287 7.32804C3.86566 7.30016 3.91053 7.27427 3.96921 7.25037C3.98475 7.07712 4.00028 6.89989 4.01409 6.72266C3.94678 6.6669 3.90535 6.60716 3.8881 6.5514C3.85185 6.44386 3.87601 6.33434 3.97267 6.2507C3.9951 6.23078 4.02099 6.21286 4.05378 6.19693C4.10038 5.56964 4.14871 4.96625 4.23501 4.4943C4.29369 4.1697 4.37135 3.90285 4.47491 3.72164C4.55603 3.58025 4.6544 3.48665 4.76659 3.44484C5.11523 3.31739 5.42589 3.48865 5.65717 3.83714C5.87291 4.16173 6.01788 4.64962 6.05758 5.15942C6.07829 5.12158 6.10763 5.08972 6.1456 5.06383C6.27159 4.98019 6.50287 4.99214 6.63059 5.2331C6.66165 5.29284 6.68754 5.36851 6.69962 5.4641C6.9775 5.48003 7.30715 5.38445 7.61436 5.21518C8.04239 4.9782 8.42554 4.58988 8.54463 4.11195C8.66372 3.63402 8.45143 3.20985 8.2892 2.80958C8.09417 2.33364 7.963 1.88757 8.2892 1.4415C8.54118 1.095 9.10383 0.933698 9.68892 1.0253C10.5536 1.15872 11.458 1.82186 11.4459 3.12223C11.4407 3.62804 11.2026 4.33499 10.8108 5.11163C10.236 6.24871 9.33165 7.54112 8.38757 8.55672C7.75416 9.23778 7.10349 9.79537 6.52358 10.1C6.11799 10.3131 5.74519 10.4027 5.4328 10.341C5.27746 10.3111 5.14111 10.3012 5.0203 10.3091L5.00994 10.335C4.78558 10.8847 4.57846 11.1356 4.43521 11.2152C4.36272 11.257 4.30059 11.263 4.24709 11.2511C4.18495 11.2371 4.13318 11.1953 4.09866 11.1316C4.04515 11.032 4.02962 10.8627 4.09348 10.6795C4.17978 10.4286 4.41623 10.1379 4.86669 10.0602C5.0203 9.66593 5.11005 9.36722 5.14629 9.13821C5.10142 9.14219 5.05309 9.14418 5.00132 9.1402C4.79766 9.12626 4.53014 9.0486 4.19186 8.95102C4.10038 8.92513 4.02099 8.89725 3.95023 8.86937C3.94505 8.88729 3.9416 8.90322 3.93642 8.92115C3.69824 9.78541 3.29093 10.3709 2.85254 10.8667C2.42969 11.3447 1.97923 11.733 1.64095 12.2209C1.25779 12.7765 1.15769 13.4874 1.27505 13.9852C1.34409 14.28 1.48734 14.503 1.7048 14.5309C2.3503 14.6185 5.95402 14.493 8.71895 12.2408C10.6606 10.6576 12.1967 8.51092 12.982 7.10699C13.3082 6.52352 13.5049 6.07546 13.536 5.8564C13.6171 5.29085 13.3392 4.8169 12.8681 4.62174C12.78 4.86868 12.6195 5.22115 12.409 5.60549C11.962 6.42196 11.294 7.39973 10.6468 7.87169C10.6399 7.87766 10.6313 7.88164 10.6226 7.88563C10.6226 7.88563 10.5191 7.92346 10.438 7.85974C10.4035 7.83385 10.3689 7.79004 10.3534 7.71437C10.3396 7.65463 10.3379 7.56501 10.3689 7.42562C10.4052 7.25834 10.4932 7.00743 10.671 6.62707C11.0196 5.88428 11.3424 5.16141 11.7031 4.7253C11.9689 4.40468 12.2571 4.23143 12.5833 4.27524C12.6299 4.28122 12.6748 4.28918 12.7196 4.29914C12.7334 4.15775 12.6523 4.04424 12.5591 3.95264C12.4262 3.8232 12.2554 3.73956 12.1794 3.70571C12.0845 3.76147 11.9809 3.87099 11.867 4.01835C11.653 4.29317 11.4114 4.7014 11.1439 5.19128C10.0842 7.13288 8.64819 10.333 7.14664 11.7967C4.97888 13.9096 1.6116 14.049 1.6116 14.049C1.54775 14.051 1.49597 13.9952 1.49252 13.9215C1.49079 13.8478 1.53912 13.7881 1.60298 13.7841C1.60298 13.7841 4.88568 13.6527 6.99475 11.5976C8.4825 10.1478 9.89776 6.97357 10.9471 5.05188C11.2215 4.54806 11.4735 4.12788 11.6927 3.84311C11.8532 3.63601 11.9999 3.50059 12.1294 3.44284C12.1535 3.4309 12.1812 3.4309 12.207 3.44085C12.207 3.44085 12.4918 3.55038 12.7024 3.75151C12.8629 3.90684 12.9768 4.11593 12.9406 4.36087L12.9388 4.36884C13.5239 4.60581 13.8622 5.20124 13.7604 5.90021C13.7259 6.1352 13.5239 6.62309 13.1736 7.25037C12.3779 8.67421 10.8211 10.8508 8.85012 12.4559C7.40035 13.6387 5.7262 14.2461 4.34892 14.5468ZM4.74243 10.3669C4.57846 10.7353 4.44212 10.9205 4.33511 10.9822C4.32475 10.9882 4.3144 10.9922 4.30404 10.9942C4.30059 10.9942 4.29714 10.9982 4.29541 10.9962C4.28678 10.9882 4.28506 10.9743 4.28333 10.9583C4.2747 10.8986 4.28851 10.8229 4.3213 10.7453C4.38516 10.5939 4.52151 10.4446 4.74243 10.3669ZM6.70653 5.72696C7.01719 5.73891 7.37964 5.64133 7.71446 5.45414C8.20117 5.18332 8.6292 4.73127 8.76555 4.18563C8.9019 3.63999 8.68271 3.15409 8.49631 2.69807C8.34097 2.3197 8.20635 1.96723 8.46351 1.61276C8.67753 1.32003 9.16079 1.2105 9.65785 1.28816C10.419 1.40566 11.2267 1.97718 11.2164 3.12024C11.2112 3.5922 10.9799 4.25135 10.6123 4.98019C10.0462 6.09736 9.15733 7.36787 8.23224 8.36555C7.61954 9.0247 6.9913 9.56636 6.43038 9.86108C6.07484 10.0483 5.74864 10.1379 5.47422 10.0821C5.34823 10.0562 5.23431 10.0443 5.12731 10.0443C5.29127 9.60818 5.37066 9.28756 5.3931 9.05059C5.54325 8.9331 5.62955 8.69413 5.61919 8.24408C5.61747 8.1226 5.61057 8.01507 5.60021 7.92147C5.66234 7.80398 5.71067 7.65064 5.73656 7.4515C5.7659 7.21851 5.77108 7.02535 5.75727 6.87002C5.82113 6.81625 5.87118 6.73859 5.91088 6.62508C5.96438 6.46975 6.00062 6.23078 6.04722 5.86636C6.06448 5.72497 6.07311 5.5796 6.07311 5.43423C6.11453 5.50592 6.1922 5.5796 6.3251 5.64133C6.37515 5.66523 6.42693 5.68315 6.48216 5.69709C6.4787 5.73891 6.47353 5.78671 6.4649 5.8345C6.45282 5.90619 6.49424 5.97589 6.55637 5.98983C6.6185 6.00377 6.67891 5.95597 6.69099 5.88428C6.69617 5.82852 6.70307 5.77675 6.70653 5.72696ZM4.04343 8.45715C4.11419 8.45715 4.19358 8.46313 4.27815 8.47508C4.44557 8.50096 4.62161 8.50296 4.77867 8.52486C4.90639 8.54278 5.0203 8.56867 5.09279 8.6543C5.13594 8.70608 5.16183 8.77777 5.167 8.87534C5.12386 8.8853 5.0738 8.8853 5.01685 8.88132C4.82355 8.86738 4.56983 8.79171 4.24881 8.7001C4.15734 8.67422 4.07795 8.64634 4.01236 8.62045L4.02272 8.57465C4.02617 8.55473 4.03135 8.53283 4.0348 8.51291L4.04343 8.45715ZM4.128 7.88563C4.31958 8.00511 4.58019 8.15845 4.83045 8.22018C5.03238 8.26996 5.22741 8.26399 5.3862 8.16044C5.38792 8.18832 5.38792 8.21819 5.38792 8.25005C5.39137 8.41733 5.38274 8.55075 5.35858 8.65231C5.33442 8.57664 5.29817 8.5169 5.25675 8.46711C5.17046 8.36555 5.04791 8.30979 4.90466 8.27793C4.72517 8.24009 4.51115 8.24408 4.30749 8.21221C4.22983 8.20027 4.15561 8.19429 4.08658 8.1923C4.10211 8.09273 4.11592 7.99117 4.128 7.88563ZM3.8018 8.49698L3.80007 8.50495L3.7949 8.50096L3.79662 8.49897L3.8018 8.49698ZM4.17632 7.46544C4.30232 7.44354 4.46455 7.43756 4.64578 7.45549C4.82355 7.4754 4.9668 7.47739 5.08243 7.4993C5.16873 7.51523 5.23431 7.53913 5.28091 7.60683C5.31888 7.66259 5.34477 7.74025 5.36203 7.84978C5.33787 7.88164 5.31026 7.90554 5.28264 7.92545C5.16873 8.00312 5.0272 7.99914 4.8805 7.9613C4.61816 7.89558 4.34546 7.72233 4.16252 7.60484C4.16597 7.55904 4.17115 7.51324 4.17632 7.46544ZM10.5691 7.6148C10.5691 7.61082 10.5691 7.60882 10.5691 7.60484C10.576 7.46744 10.652 7.21652 10.8677 6.75651C11.2043 6.03563 11.5149 5.33466 11.8653 4.9105C12.0741 4.65759 12.2951 4.50624 12.5522 4.5401C12.5833 4.54408 12.6144 4.55005 12.6437 4.55603C12.5591 4.78504 12.4072 5.10963 12.2105 5.46808C11.7928 6.23278 11.1767 7.14881 10.5691 7.6148ZM4.22983 6.84015C4.36445 6.88993 4.5474 6.92777 4.77522 6.93773C5.07035 6.95167 5.27919 6.97556 5.4328 6.96959C5.46904 6.9676 5.50183 6.96561 5.5329 6.96162C5.53808 7.08509 5.52945 7.23444 5.50528 7.41367C5.50183 7.44354 5.49665 7.47341 5.49148 7.50129C5.4794 7.47938 5.46904 7.45947 5.45523 7.43956C5.38792 7.34397 5.30163 7.28821 5.19117 7.25436C5.06 7.21652 4.88568 7.21453 4.66303 7.19063C4.48872 7.17271 4.32993 7.1747 4.19876 7.19262C4.21084 7.07712 4.2212 6.95963 4.22983 6.84015ZM4.26435 6.40204C4.2747 6.40005 4.28506 6.39806 4.29714 6.39607C4.34892 6.3901 4.4076 6.38611 4.47491 6.3901C4.68892 6.39806 4.89086 6.3901 5.06345 6.41001C5.20843 6.42594 5.33097 6.45979 5.41554 6.55737C5.44833 6.59521 5.47422 6.643 5.4932 6.70075C5.47249 6.70274 5.45178 6.70473 5.42762 6.70473C5.27919 6.70872 5.0738 6.68482 4.78558 6.67287C4.55085 6.66292 4.37308 6.62309 4.25227 6.56932L4.26262 6.44187L4.26435 6.40204ZM4.28506 6.13321C4.32993 5.54774 4.37826 4.99214 4.45765 4.54806C4.5008 4.30711 4.5543 4.10199 4.62506 3.94666C4.68202 3.81922 4.7476 3.72761 4.83563 3.69575C5.08934 3.60415 5.3068 3.74354 5.47594 3.99645C5.75899 4.4246 5.90052 5.1634 5.81768 5.82653C5.78316 6.10931 5.75382 6.31044 5.71757 6.45382C5.70722 6.49166 5.69686 6.52551 5.68651 6.55339C5.65717 6.47971 5.62265 6.41997 5.5795 6.37217C5.48285 6.25667 5.35168 6.19295 5.19634 6.16308C4.99614 6.12325 4.7476 6.1352 4.48181 6.12524C4.40932 6.12325 4.34374 6.12723 4.28506 6.13321ZM6.26469 5.29682C6.28367 5.29085 6.3251 5.28089 6.35271 5.29085C6.39413 5.30678 6.43038 5.34661 6.45454 5.41432L6.45627 5.4183C6.44073 5.41232 6.42347 5.40635 6.40967 5.39839C6.35271 5.37051 6.30956 5.34462 6.28195 5.31475C6.27332 5.30877 6.26987 5.3028 6.26469 5.29682Z" fill="#4E3604"/>
</svg>
