<svg width="28" height="25" viewBox="0 0 28 25" fill="none" xmlns="http://www.w3.org/2000/svg">
<path d="M26.7445 4.54127C25.7584 4.97746 24.7127 5.26392 23.642 5.39118C24.7706 4.71621 25.6153 3.65392 26.0186 2.40229C24.9595 3.03262 23.7983 3.47436 22.588 3.71332C21.775 2.84349 20.6975 2.26662 19.5228 2.07238C18.3482 1.87814 17.1423 2.07742 16.0926 2.63925C15.0429 3.20107 14.2082 4.09395 13.7183 5.17908C13.2284 6.26422 13.1108 7.4808 13.3836 8.6397C11.2358 8.53205 9.13451 7.97388 7.21634 7.00145C5.29817 6.02901 3.60595 4.66404 2.24955 2.99516C1.76943 3.81982 1.51712 4.75727 1.51847 5.71151C1.51847 7.58442 2.47171 9.23903 3.92095 10.2078C3.06331 10.1808 2.22453 9.94916 1.47455 9.53224V9.5994C1.47481 10.8468 1.90645 12.0556 2.69627 13.0211C3.48609 13.9865 4.58549 14.6491 5.80807 14.8965C5.01191 15.1122 4.1771 15.144 3.36683 14.9895C3.71153 16.0632 4.38338 17.0022 5.28829 17.675C6.19321 18.3478 7.28589 18.7208 8.41334 18.7418C7.2928 19.6218 6.00979 20.2723 4.63767 20.6562C3.26555 21.0401 1.83122 21.1497 0.416687 20.9789C2.88595 22.5669 5.7604 23.41 8.69621 23.4072C18.6329 23.4072 24.0669 15.1755 24.0669 8.0365C24.0669 7.804 24.0605 7.56892 24.0501 7.339C25.1078 6.57456 26.0207 5.62758 26.7458 4.54256L26.7445 4.54127Z" fill="#F1A501" stroke="#4E3604" stroke-width="1.5"/>
</svg>
