<svg width="28" height="28" viewBox="0 0 28 28" fill="none" xmlns="http://www.w3.org/2000/svg">
<path d="M14.3333 1C17.8427 1 18.2806 1.01292 19.6575 1.0775C21.0331 1.14208 21.9695 1.35779 22.7936 1.67812C23.6461 2.0062 24.3643 2.45053 25.0824 3.1674C25.7392 3.8131 26.2475 4.59415 26.5717 5.45622C26.8908 6.279 27.1078 7.21675 27.1723 8.59236C27.233 9.96927 27.2498 10.4071 27.2498 13.9166C27.2498 17.426 27.2369 17.8639 27.1723 19.2408C27.1078 20.6164 26.8908 21.5529 26.5717 22.3769C26.2484 23.2395 25.74 24.0207 25.0824 24.6658C24.4366 25.3223 23.6556 25.8305 22.7936 26.155C21.9708 26.4741 21.0331 26.6911 19.6575 26.7557C18.2806 26.8164 17.8427 26.8332 14.3333 26.8332C10.8238 26.8332 10.386 26.8202 9.00905 26.7557C7.63344 26.6911 6.69698 26.4741 5.87291 26.155C5.0105 25.8314 4.22931 25.3231 3.58409 24.6658C2.92716 24.0202 2.41892 23.2391 2.09481 22.3769C1.77448 21.5541 1.55877 20.6164 1.49419 19.2408C1.43348 17.8639 1.41669 17.426 1.41669 13.9166C1.41669 10.4071 1.4296 9.96927 1.49419 8.59236C1.55877 7.21546 1.77448 6.2803 2.09481 5.45622C2.41803 4.59362 2.92638 3.81235 3.58409 3.1674C4.22949 2.51025 5.01063 2.00198 5.87291 1.67812C6.69698 1.35779 7.63214 1.14208 9.00905 1.0775C10.386 1.01679 10.8238 1 14.3333 1ZM14.3333 7.45829C12.6204 7.45829 10.9777 8.13871 9.76656 9.34988C8.5554 10.561 7.87498 12.2037 7.87498 13.9166C7.87498 15.6294 8.5554 17.2721 9.76656 18.4833C10.9777 19.6944 12.6204 20.3749 14.3333 20.3749C16.0461 20.3749 17.6888 19.6944 18.9 18.4833C20.1111 17.2721 20.7916 15.6294 20.7916 13.9166C20.7916 12.2037 20.1111 10.561 18.9 9.34988C17.6888 8.13871 16.0461 7.45829 14.3333 7.45829ZM22.729 7.13537C22.729 6.70716 22.5589 6.29649 22.2561 5.9937C21.9534 5.69091 21.5427 5.5208 21.1145 5.5208C20.6863 5.5208 20.2756 5.69091 19.9728 5.9937C19.67 6.29649 19.4999 6.70716 19.4999 7.13537C19.4999 7.56359 19.67 7.97426 19.9728 8.27705C20.2756 8.57984 20.6863 8.74995 21.1145 8.74995C21.5427 8.74995 21.9534 8.57984 22.2561 8.27705C22.5589 7.97426 22.729 7.56359 22.729 7.13537ZM14.3333 10.0416C15.361 10.0416 16.3466 10.4499 17.0733 11.1766C17.8 11.9033 18.2082 12.8889 18.2082 13.9166C18.2082 14.9443 17.8 15.9299 17.0733 16.6566C16.3466 17.3833 15.361 17.7915 14.3333 17.7915C13.3056 17.7915 12.3199 17.3833 11.5932 16.6566C10.8665 15.9299 10.4583 14.9443 10.4583 13.9166C10.4583 12.8889 10.8665 11.9033 11.5932 11.1766C12.3199 10.4499 13.3056 10.0416 14.3333 10.0416Z" fill="#F1A501" stroke="#4E3604" stroke-width="1.5"/>
</svg>
