<svg width="14" height="16" viewBox="0 0 14 16" fill="none" xmlns="http://www.w3.org/2000/svg">
<path d="M7.34084 0C7.65675 0.0709627 7.98513 0.112705 8.29273 0.212888C10.1217 0.801461 11.3396 2.60892 11.1941 4.48735C11.0362 6.48683 9.60626 8.0647 7.67338 8.38195C5.28742 8.77015 3.06773 7.06288 2.82248 4.6418C2.5897 2.34594 4.25655 0.271328 6.53859 0.0292199C6.58016 0.0250457 6.61757 0.0125228 6.65914 0C6.8836 0 7.11222 0 7.34084 0Z" fill="black"/>
<path d="M7 15.9999C4.85513 15.9999 2.7061 15.9999 0.561232 15.9999C0.166343 15.9999 -0.00408258 15.8204 7.41433e-05 15.4238C0.0374847 12.4601 2.21977 9.92213 5.1461 9.44626C5.41213 9.40452 5.68232 9.38365 5.95251 9.37947C6.6259 9.37113 7.29929 9.37113 7.97268 9.3753C10.6829 9.40035 13.0688 11.2579 13.7796 13.8835C13.9168 14.3928 13.9916 14.9104 13.9999 15.4405C14.0041 15.8162 13.8253 15.9999 13.4554 15.9999C11.3022 15.9999 9.15319 15.9999 7 15.9999Z" fill="black"/>
</svg>
