<svg width="18" height="13" viewBox="0 0 18 13" fill="none" xmlns="http://www.w3.org/2000/svg">
<path d="M18.0001 11.2825C17.9484 11.4375 17.9014 11.5877 17.8545 11.7286C16.0371 9.92534 14.2291 8.13615 12.4164 6.34225C14.2385 4.53896 16.0465 2.74507 17.8639 0.951172C17.9014 1.06388 17.9531 1.21885 18.0001 1.36912C18.0001 4.67515 18.0001 7.98117 18.0001 11.2825Z" fill="black"/>
<path d="M17.0843 0.162733C16.8119 0.430408 16.5537 0.674603 16.3048 0.928191C14.0319 3.20578 11.7637 5.48337 9.49078 7.76096C9.17145 8.08029 8.82394 8.08029 8.5093 7.76565C6.02509 5.26735 3.54087 2.77374 1.05665 0.280134C1.01908 0.242566 0.986212 0.204997 0.915771 0.12986C1.12709 0.0828998 1.30554 0.0406353 1.48399 0.00776288C1.54974 -0.00632531 1.62488 0.00306682 1.69532 0.00306682C6.56983 0.00306682 11.4396 0.00306682 16.3142 0.00306682C16.5677 -0.00162925 16.8166 0.0265471 17.0843 0.162733Z" fill="black"/>
<path d="M11.6322 7.11279C13.4449 8.91138 15.2482 10.6959 17.0937 12.5227C16.8777 12.5696 16.6992 12.6166 16.5208 12.6494C16.4457 12.6635 16.3705 12.6541 16.2907 12.6541C11.4256 12.6541 6.55575 12.6541 1.69063 12.6541C1.43235 12.6541 1.17876 12.6307 0.929871 12.5039C2.74725 10.7053 4.55523 8.91608 6.36321 7.12218C6.81873 7.5777 7.30242 8.0614 7.79081 8.5404C8.32147 9.06166 9.06814 9.20254 9.7115 8.87851C9.89465 8.78459 10.0684 8.6484 10.214 8.50752C10.6507 8.08488 11.0781 7.64814 11.5054 7.21611C11.5664 7.17384 11.6087 7.13158 11.6322 7.11279Z" fill="black"/>
<path d="M0.155031 0.927979C1.96771 2.72657 3.77569 4.51577 5.58837 6.30966C3.76161 8.11295 1.95362 9.90685 0.140943 11.7007C0.0423256 11.5129 6.10352e-05 11.2734 6.10352e-05 11.0198C6.10352e-05 9.3621 6.10352e-05 7.70439 6.10352e-05 6.04668C6.10352e-05 4.57212 6.10352e-05 3.09286 6.10352e-05 1.6183C6.10352e-05 1.36941 0.0517177 1.1393 0.155031 0.927979Z" fill="black"/>
</svg>
