<svg width="18" height="17" viewBox="0 0 18 17" fill="none" xmlns="http://www.w3.org/2000/svg">
<path d="M17.3125 12.4935V15.7454C17.3125 16.2282 16.9392 16.6288 16.4577 16.6628C16.0554 16.6913 15.7273 16.7054 15.4732 16.7054C7.34668 16.7054 0.758911 10.1177 0.758911 1.99114C0.758911 1.73705 0.77312 1.40889 0.801537 1.00666C0.835582 0.52512 1.23615 0.151855 1.71889 0.151855H4.97097C5.20702 0.151855 5.40473 0.330652 5.42843 0.565511C5.44971 0.776357 5.46949 0.945636 5.48778 1.07336C5.6738 2.37254 6.05378 3.60912 6.59745 4.75286C6.68471 4.93644 6.62781 5.15617 6.4624 5.27432L4.47753 6.69217C5.68592 9.51483 7.94951 11.7784 10.7722 12.9869L12.1874 11.0054C12.3071 10.838 12.5294 10.7804 12.7152 10.8686C13.8589 11.4119 15.0953 11.7914 16.3943 11.977C16.5212 11.9952 16.6894 12.0148 16.8988 12.0359C17.1337 12.0597 17.3125 12.2574 17.3125 12.4935Z" fill="black"/>
</svg>
