<svg width="123" height="131" viewBox="0 0 123 131" fill="none" xmlns="http://www.w3.org/2000/svg">
<path d="M111.182 7.90771V6.03857H121.903V7.90771H111.182ZM115.543 12.4731V1.08643H117.531V12.4731H115.543Z" fill="#4E3604"/>
<path d="M83.5617 35.5283V33.6592H94.2824V35.5283H83.5617ZM87.923 40.0938V28.707H89.9103V40.0938H87.923Z" fill="#4E3604"/>
<path d="M55.9413 118.39V116.521H66.662V118.39H55.9413ZM60.3027 122.955V111.568H62.29V122.955H60.3027Z" fill="#4E3604"/>
<path d="M55.9413 90.769V88.8999H66.662V90.769H55.9413ZM60.3027 95.3345V83.9478H62.29V95.3345H60.3027Z" fill="#4E3604"/>
<path d="M55.9413 63.1489V61.2798H66.662V63.1489H55.9413ZM60.3027 67.7144V56.3276H62.29V67.7144H60.3027Z" fill="#F1A501"/>
<path d="M55.9413 35.5283V33.6592H66.662V35.5283H55.9413ZM60.3027 40.0938V28.707H62.29V40.0938H60.3027Z" fill="#4E3604"/>
<path d="M55.9413 7.90771V6.03857H66.662V7.90771H55.9413ZM60.3027 12.4731V1.08643H62.29V12.4731H60.3027Z" fill="#4E3604"/>
<path d="M28.3209 118.39V116.521H39.0416V118.39H28.3209ZM32.6822 122.955V111.568H34.6695V122.955H32.6822Z" fill="#4E3604"/>
<path d="M28.3209 90.769V88.8999H39.0416V90.769H28.3209ZM32.6822 95.3345V83.9478H34.6695V95.3345H32.6822Z" fill="#4E3604"/>
<path d="M28.3209 63.1489V61.2798H39.0416V63.1489H28.3209ZM32.6822 67.7144V56.3276H34.6695V67.7144H32.6822Z" fill="#4E3604"/>
<path d="M28.3209 35.5283V33.6592H39.0416V35.5283H28.3209ZM32.6822 40.0938V28.707H34.6695V40.0938H32.6822Z" fill="#4E3604"/>
<path d="M28.3209 7.90771V6.03857H39.0416V7.90771H28.3209ZM32.6822 12.4731V1.08643H34.6695V12.4731H32.6822Z" fill="#4E3604"/>
<path d="M0.700439 118.39V116.521H11.4211V118.39H0.700439ZM5.06177 122.955V111.568H7.04907V122.955H5.06177Z" fill="#F1A501"/>
<path d="M0.700439 90.769V88.8999H11.4211V90.769H0.700439ZM5.06177 95.3345V83.9478H7.04907V95.3345H5.06177Z" fill="#4E3604"/>
<path d="M0.700439 63.1489V61.2798H11.4211V63.1489H0.700439ZM5.06177 67.7144V56.3276H7.04907V67.7144H5.06177Z" fill="#4E3604"/>
<path d="M0.700439 35.5283V33.6592H11.4211V35.5283H0.700439ZM5.06177 40.0938V28.707H7.04907V40.0938H5.06177Z" fill="#4E3604"/>
<path d="M0.700439 7.90771V6.03857H11.4211V7.90771H0.700439ZM5.06177 12.4731V1.08643H7.04907V12.4731H5.06177Z" fill="#4E3604"/>
</svg>
