<svg width="237" height="86" viewBox="0 0 237 86" fill="none" xmlns="http://www.w3.org/2000/svg">
<path d="M80.5 28L83.5 21.5H79.5L76 23.5L71.5 30.5L67.5 37.5L67 41H69.5L74.5 36L80.5 28Z" fill="#F1A501"/>
<path d="M30 49L26 48.5L21 47.5L20 46L23 45L29 46L30 47.5V49Z" fill="#F1A501"/>
<path d="M31 44L27 43.25L22 41.75L21 39.5L24 38L30 39.5L31 41.75V44Z" fill="#F1A501"/>
<path d="M32.5 35.5L29 36L22.5 34.5L21 33.5L23 32.5H28L32 33.5L32.5 35.5Z" fill="#F1A501"/>
<path fill-rule="evenodd" clip-rule="evenodd" d="M23.7361 83.2161C34.1707 82.4944 48.4219 81.6626 60.8871 81.5402C83.8481 81.32 93.3407 81.6503 97.7567 83.3507C102.173 85.051 96.509 84.7085 82.6003 84.2559C68.6916 83.8033 57.0338 84.5984 44.3728 84.7085C32.3724 84.8186 7.98024 87.4609 8.53072 84.8553C6.81812 84.8798 5.54591 84.8309 4.79971 84.7452C2.64674 84.4883 1.05648 82.739 0.371439 80.1946C-0.558253 76.7205 0.20018 71.7662 3.29508 67.9251C5.25233 65.4786 7.73558 63.4235 10.2066 61.1604C13.7786 57.9065 17.3628 54.2244 19.2833 48.1814C19.3323 48.0224 19.3812 47.8633 19.4301 47.7043C18.8797 47.4107 18.5127 47.1171 18.317 46.8603C17.901 46.322 17.9133 45.796 18.1702 45.3556C18.3414 45.0498 18.6962 44.7317 19.2589 44.5238C19.528 44.4259 19.8461 44.3403 20.2253 44.2914C20.3965 43.3984 20.5433 42.4564 20.6657 41.5023C19.7604 41.0497 19.4668 40.4625 19.4546 40.0221C19.4424 39.6307 19.6259 39.2148 20.0785 38.8722C20.3109 38.701 20.629 38.5419 21.0449 38.3952C21.155 37.3309 21.2651 36.2422 21.3629 35.1535C20.8858 34.8109 20.5923 34.444 20.4699 34.1014C20.213 33.4409 20.3843 32.7681 21.0693 32.2543C21.2284 32.132 21.4119 32.0219 21.6443 31.924C21.9746 28.0707 22.3171 24.3641 22.9287 21.465C23.3446 19.471 23.8951 17.8318 24.6291 16.7186C25.204 15.8501 25.9013 15.2752 26.6964 15.0183C29.1674 14.2354 31.3693 15.2874 33.0085 17.4281C34.5376 19.4221 35.5652 22.4191 35.8466 25.5507C35.9933 25.3183 36.2013 25.1226 36.4704 24.9635C37.3634 24.4498 39.0026 24.5232 39.9078 26.0033C40.128 26.3703 40.3115 26.8352 40.3972 27.4223C42.3666 27.5202 44.7031 26.933 46.8805 25.8932C49.9143 24.4375 52.63 22.0521 53.474 19.1163C54.3181 16.1804 52.8134 13.5748 51.6636 11.116C50.2813 8.19238 49.3516 5.45223 51.6636 2.71208C53.4495 0.583575 57.4374 -0.407282 61.5844 0.155427C67.713 0.975024 74.123 5.04855 74.0374 13.0366C74.0007 16.1437 72.3125 20.4863 69.5357 25.2571C65.4622 32.2421 59.0522 40.1811 52.3608 46.4199C47.8714 50.6035 43.2596 54.0287 39.1494 55.9003C36.2747 57.2092 33.6324 57.7597 31.4183 57.3805C30.3173 57.197 29.3509 57.1358 28.4946 57.1847L28.4212 57.3438C26.831 60.72 25.363 62.2613 24.3477 62.7507C23.8339 63.0075 23.3936 63.0442 23.0144 62.9708C22.574 62.8852 22.207 62.6283 21.9623 62.2369C21.5831 61.6252 21.473 60.5855 21.9256 59.46C22.5373 57.9187 24.2132 56.1327 27.4059 55.6556C28.4946 53.2335 29.1307 51.3986 29.3876 49.9918C29.0696 50.0163 28.7271 50.0285 28.3601 50.0041C26.9166 49.9185 25.0205 49.4414 22.6229 48.842C21.9746 48.6829 21.4119 48.5117 20.9103 48.3404C20.8736 48.4505 20.8491 48.5484 20.8124 48.6585C19.1243 53.9675 16.2374 57.5639 13.1302 60.6099C10.1332 63.5458 6.94045 65.9312 4.54282 68.9282C1.82714 72.3412 1.11764 76.7083 1.94947 79.7665C2.43878 81.5769 3.4541 82.947 4.99544 83.1183C9.5705 83.6565 35.1126 82.8858 54.7095 69.0505C68.4714 59.3255 79.3586 46.1385 84.9245 37.5144C87.2365 33.9302 88.6311 31.1778 88.8513 29.8322C89.4262 26.3581 87.4567 23.4467 84.1172 22.2479C83.4933 23.7647 82.3557 25.9299 80.8633 28.2909C77.695 33.3063 72.9609 39.3126 68.3736 42.2118C68.3246 42.2485 68.2635 42.273 68.2023 42.2974C68.2023 42.2974 67.4683 42.5298 66.8934 42.1384C66.6487 41.9794 66.4041 41.7102 66.294 41.2454C66.1961 40.8784 66.1839 40.3279 66.4041 39.4716C66.661 38.4441 67.2848 36.9028 68.5448 34.5663C71.0159 30.0035 73.3034 25.5629 75.86 22.884C77.7439 20.9145 79.7868 19.8502 82.0988 20.1194C82.429 20.1561 82.7471 20.205 83.0652 20.2661C83.163 19.3976 82.5881 18.7003 81.9275 18.1376C80.9856 17.3425 79.7745 16.8287 79.2363 16.6208C78.5635 16.9633 77.8295 17.6361 77.0222 18.5413C75.5053 20.2294 73.7927 22.7372 71.8966 25.7464C64.3857 37.6734 54.208 57.3315 43.5654 66.3226C28.2011 79.3016 4.33487 80.1579 4.33487 80.1579C3.88225 80.1702 3.51527 79.8276 3.4908 79.375C3.47857 78.9224 3.82109 78.5554 4.2737 78.531C4.2737 78.531 27.5405 77.7236 42.489 65.0993C53.0336 56.1939 63.0645 36.6948 70.5021 24.8901C72.4471 21.7952 74.2331 19.2141 75.7866 17.4648C76.9243 16.1926 77.9641 15.3608 78.8815 15.006C79.0528 14.9326 79.2485 14.9326 79.432 14.9938C79.432 14.9938 81.4504 15.6666 82.9428 16.9021C84.0805 17.8563 84.8878 19.1407 84.631 20.6454L84.6187 20.6943C88.7656 22.15 91.1633 25.8076 90.4415 30.1013C90.1969 31.5448 88.7656 34.5418 86.2824 38.3952C80.6431 47.1416 69.6091 60.5121 55.6392 70.3717C45.3637 77.638 33.4979 81.369 23.7361 83.2161ZM26.5252 57.5395C25.363 59.8026 24.3967 60.9402 23.6382 61.3194C23.5648 61.3561 23.4914 61.3806 23.418 61.3928C23.3936 61.3928 23.3691 61.4173 23.3569 61.405C23.2957 61.3561 23.2835 61.2705 23.2712 61.1726C23.2101 60.8056 23.3079 60.3408 23.5404 59.8637C23.993 58.934 24.9594 58.0166 26.5252 57.5395ZM40.4461 29.0371C42.648 29.1105 45.2169 28.5111 47.59 27.3612C51.0397 25.6975 54.0734 22.9207 55.0398 19.5689C56.0062 16.2171 54.4526 13.2323 53.1315 10.431C52.0305 8.10674 51.0764 5.94154 52.8991 3.7641C54.4159 1.96588 57.8411 1.29308 61.3642 1.77016C66.7588 2.49189 72.4838 6.0027 72.4104 13.0243C72.3737 15.9235 70.7345 19.9726 68.1289 24.4498C64.1166 31.3124 57.8167 39.1169 51.2599 45.2455C46.9172 49.2946 42.4645 52.6219 38.4888 54.4324C35.9689 55.5822 33.6569 56.1327 31.7119 55.7902C30.8189 55.6312 30.0115 55.5578 29.2531 55.5578C30.4152 52.8788 30.9779 50.9093 31.1369 49.4536C32.2012 48.7319 32.8128 47.2639 32.7394 44.4993C32.7272 43.7531 32.6783 43.0926 32.6049 42.5176C33.0452 41.7959 33.3878 40.8539 33.5713 39.6307C33.7792 38.1994 33.8159 37.0129 33.718 36.0587C34.1707 35.7284 34.5254 35.2513 34.8068 34.5541C35.186 33.5999 35.4429 32.132 35.7732 29.8934C35.8955 29.0248 35.9566 28.1318 35.9566 27.2388C36.2502 27.6792 36.8007 28.1318 37.7426 28.5111C38.0974 28.6578 38.4644 28.7679 38.8558 28.8536C38.8314 29.1105 38.7947 29.404 38.7335 29.6976C38.6479 30.138 38.9414 30.5662 39.3818 30.6518C39.8222 30.7374 40.2504 30.4438 40.336 30.0035C40.3727 29.6609 40.4216 29.3429 40.4461 29.0371ZM21.5709 45.8082C22.0724 45.8082 22.6351 45.8449 23.2345 45.9183C24.4211 46.0774 25.6689 46.0896 26.7821 46.2241C27.6873 46.3342 28.4946 46.4933 29.0084 47.0193C29.3142 47.3373 29.4977 47.7777 29.5344 48.3771C29.2286 48.4383 28.8739 48.4383 28.4702 48.4138C27.1001 48.3282 25.3019 47.8633 23.0266 47.3006C22.3782 47.1416 21.8155 46.9703 21.3507 46.8113L21.4241 46.53C21.4486 46.4076 21.4853 46.2731 21.5097 46.1508L21.5709 45.8082ZM22.1703 42.2974C23.5281 43.0314 25.3753 43.9733 27.149 44.3525C28.5803 44.6583 29.9626 44.6217 31.088 43.9855C31.1002 44.1568 31.1002 44.3403 31.1002 44.536C31.1247 45.5636 31.0635 46.3832 30.8923 47.007C30.721 46.5422 30.4641 46.1752 30.1705 45.8694C29.5589 45.2455 28.6904 44.903 27.675 44.7073C26.4028 44.4749 24.886 44.4993 23.4425 44.3036C22.892 44.2302 22.366 44.1935 21.8767 44.1813C21.9868 43.5696 22.0847 42.9458 22.1703 42.2974ZM19.8583 46.0529L19.8461 46.1018L19.8094 46.0774L19.8216 46.0651L19.8583 46.0529ZM22.5128 39.7163C23.4058 39.5817 24.5557 39.545 25.8401 39.6551C27.1001 39.7775 28.1154 39.7897 28.935 39.9243C29.5467 40.0221 30.0115 40.1689 30.3418 40.5848C30.6109 40.9273 30.7944 41.4044 30.9167 42.0772C30.7455 42.273 30.5498 42.4197 30.354 42.5421C29.5467 43.0192 28.5436 42.9947 27.5038 42.7623C25.6444 42.3586 23.7116 41.2943 22.4149 40.5726C22.4394 40.2912 22.4761 40.0099 22.5128 39.7163ZM67.8231 40.6338C67.8231 40.6093 67.8231 40.5971 67.8231 40.5726C67.872 39.7285 68.4103 38.1872 69.9394 35.3614C72.3248 30.9331 74.5267 26.6272 77.0099 24.0216C78.4901 22.4681 80.0559 21.5384 81.8786 21.7463C82.0988 21.7708 82.319 21.8075 82.5269 21.8442C81.9275 23.2509 80.851 25.2449 79.4565 27.4468C76.4961 32.1442 72.129 37.7713 67.8231 40.6338ZM22.892 35.8752C23.8462 36.181 25.1429 36.4134 26.7576 36.4746C28.8494 36.5602 30.3296 36.707 31.4183 36.6703C31.6752 36.6581 31.9076 36.6459 32.1278 36.6214C32.1645 37.3798 32.1033 38.2973 31.9321 39.3982C31.9076 39.5817 31.8709 39.7652 31.8342 39.9365C31.7486 39.8019 31.6752 39.6796 31.5773 39.5573C31.1002 38.9701 30.4886 38.6276 29.7057 38.4196C28.776 38.1872 27.5405 38.175 25.9625 38.0282C24.7269 37.9181 23.6015 37.9303 22.6718 38.0404C22.7575 37.3309 22.8309 36.6092 22.892 35.8752ZM23.1367 33.184C23.2101 33.1718 23.2835 33.1595 23.3691 33.1473C23.7361 33.1106 24.152 33.0861 24.6291 33.1106C26.1459 33.1595 27.5772 33.1106 28.8005 33.2329C29.828 33.3308 30.6965 33.5387 31.296 34.1381C31.5284 34.3706 31.7119 34.6642 31.8464 35.0189C31.6996 35.0311 31.5528 35.0434 31.3816 35.0434C30.3296 35.0678 28.8739 34.921 26.831 34.8476C25.1673 34.7865 23.9073 34.5418 23.051 34.2115L23.1244 33.4286L23.1367 33.184ZM23.2835 31.5326C23.6015 27.9361 23.944 24.5232 24.5068 21.7952C24.8126 20.3151 25.1918 19.0551 25.6933 18.1009C26.097 17.318 26.5619 16.7553 27.1857 16.5596C28.984 15.9969 30.5253 16.8532 31.7241 18.4068C33.7303 21.0368 34.7334 25.5752 34.1462 29.6487C33.9015 31.3858 33.6936 32.6213 33.4367 33.502C33.3633 33.7345 33.2899 33.9424 33.2165 34.1137C33.0085 33.6611 32.7639 33.2941 32.4581 33.0005C31.773 32.291 30.8433 31.8995 29.7424 31.716C28.3234 31.4714 26.5619 31.5448 24.678 31.4836C24.1642 31.4714 23.6994 31.4959 23.2835 31.5326ZM37.3145 26.3948C37.4491 26.3581 37.7426 26.2969 37.9384 26.3581C38.2319 26.4559 38.4888 26.7006 38.6601 27.1165L38.6723 27.141C38.5622 27.1043 38.4399 27.0676 38.342 27.0187C37.9384 26.8474 37.6325 26.6884 37.4368 26.5049C37.3757 26.4682 37.3512 26.4315 37.3145 26.3948Z" fill="#4E3604"/>
<path d="M221 64.5C221 63.9091 220.884 63.3239 220.657 62.7779C220.431 62.232 220.1 61.7359 219.682 61.318C219.264 60.9002 218.768 60.5687 218.222 60.3425C217.676 60.1164 217.091 60 216.5 60C215.909 60 215.324 60.1164 214.778 60.3425C214.232 60.5687 213.736 60.9002 213.318 61.318C212.9 61.7359 212.569 62.232 212.343 62.7779C212.116 63.3239 212 63.9091 212 64.5L216.5 64.5H221Z" fill="#F1A501"/>
<circle cx="113.5" cy="64.5" r="4.5" fill="#F1A501"/>
<circle cx="129.5" cy="64.5" r="4.5" fill="#F1A501"/>
<circle cx="145.5" cy="64.5" r="4.5" fill="#F1A501"/>
<circle cx="200.5" cy="64.5" r="4.5" fill="#F1A501"/>
<path d="M94.8932 61.9544V64.9759H99.1992C98.6487 66.3093 97.0829 67.2023 95.2602 67.2023C92.6302 67.2023 90.9054 65.3184 90.9054 62.5783C90.9054 59.8014 92.6546 57.9176 95.2602 57.9176C97.034 57.9176 98.5876 58.8595 99.2114 60.3274H104.227C103.493 56.2906 99.7619 53.4404 95.2113 53.4404C89.8656 53.4404 86 57.2937 86 62.5783C86 67.8629 89.9267 71.6917 95.248 71.6917C100.692 71.6917 104.398 67.6549 104.398 61.9666L94.8932 61.9544Z" fill="#4E3604"/>
<path d="M113.34 71.6673C117.695 71.6673 120.851 68.6702 120.851 64.5355C120.851 60.3764 117.695 57.4038 113.34 57.4038C108.973 57.4038 105.829 60.3886 105.829 64.5355C105.829 68.6702 108.961 71.6673 113.34 71.6673ZM113.34 67.5326C111.652 67.5326 110.453 66.3093 110.453 64.5355C110.453 62.7618 111.664 61.5385 113.34 61.5385C115.016 61.5385 116.227 62.774 116.227 64.5355C116.227 66.3093 115.016 67.5326 113.34 67.5326Z" fill="#4E3604"/>
<path d="M129.708 71.6673C134.063 71.6673 137.219 68.6702 137.219 64.5355C137.219 60.3764 134.063 57.4038 129.708 57.4038C125.341 57.4038 122.197 60.3886 122.197 64.5355C122.197 68.6702 125.341 71.6673 129.708 71.6673ZM129.708 67.5326C128.02 67.5326 126.821 66.3093 126.821 64.5355C126.821 62.7618 128.032 61.5385 129.708 61.5385C131.384 61.5385 132.595 62.774 132.595 64.5355C132.607 66.3093 131.396 67.5326 129.708 67.5326Z" fill="#4E3604"/>
<path d="M148.95 53V58.3335C147.984 57.7341 146.858 57.4038 145.623 57.4038C141.512 57.4038 138.589 60.3764 138.589 64.5355C138.589 68.6947 141.512 71.6917 145.623 71.6917C147.188 71.6917 148.571 71.1657 149.672 70.2482L150.112 71.2391H153.525V53H148.95ZM146.234 67.606C144.509 67.606 143.237 66.2848 143.237 64.5355C143.237 62.7862 144.509 61.4651 146.234 61.4651C147.959 61.4651 149.231 62.7862 149.231 64.5355C149.231 66.2848 147.959 67.606 146.234 67.606Z" fill="#4E3604"/>
<path d="M168.18 71.655C172.205 71.655 175.128 69.6855 175.128 65.8934C175.128 61.9422 171.789 61.0859 169.232 60.4253C167.593 60.0094 166.272 59.6913 166.272 58.7005C166.272 57.8931 167.091 57.5261 167.948 57.5261C168.951 57.5261 169.77 58.0399 169.77 59.1409H174.553C174.553 55.6056 172.168 53.4648 168.009 53.4648C163.898 53.4648 161.391 55.4221 161.391 58.8473C161.391 62.7862 164.596 63.5569 167.116 64.1808C168.779 64.5844 170.125 64.8903 170.125 65.979C170.125 66.9209 169.171 67.4592 168.168 67.4592C167.079 67.4592 166.125 66.8597 166.125 65.6242H161.195C161.183 69.4042 163.923 71.655 168.18 71.655Z" fill="#4E3604"/>
<path d="M185.587 57.4405C184.254 57.4405 183.006 57.9176 182.027 58.7127V53H177.416V71.2391H182.027V64.0829C182.027 62.3581 182.896 61.3672 184.291 61.3672C185.489 61.3672 186.028 62.1501 186.028 63.7037V71.2391H190.639V63.1655C190.627 59.6913 188.658 57.4405 185.587 57.4405Z" fill="#4E3604"/>
<path d="M200.132 71.6673C204.487 71.6673 207.643 68.6702 207.643 64.5355C207.643 60.3764 204.487 57.4038 200.132 57.4038C195.765 57.4038 192.621 60.3886 192.621 64.5355C192.621 68.6702 195.765 71.6673 200.132 71.6673ZM200.132 67.5326C198.444 67.5326 197.245 66.3093 197.245 64.5355C197.245 62.7618 198.456 61.5385 200.132 61.5385C201.82 61.5385 203.019 62.774 203.019 64.5355C203.019 66.3093 201.82 67.5326 200.132 67.5326Z" fill="#4E3604"/>
<path d="M223.582 64.4132C223.582 60.4865 220.597 57.4038 216.267 57.4038C212.059 57.4038 208.989 60.4253 208.989 64.5355C208.989 68.6335 212.083 71.6795 216.267 71.6795C219.631 71.6795 222.335 69.7712 223.276 66.713H218.689C218.249 67.4959 217.344 67.9729 216.267 67.9729C214.811 67.9729 213.833 67.1778 213.527 65.6365H223.472C223.546 65.2206 223.582 64.8169 223.582 64.4132ZM216.279 61.0125C217.674 61.0125 218.64 61.7342 219.044 63.0798H213.625C213.992 61.7465 214.934 61.0125 216.279 61.0125Z" fill="#4E3604"/>
<path d="M230.849 71.6672C234.408 71.6672 236.769 69.8323 236.769 67.0432C236.769 63.6425 233.956 63.2021 231.839 62.8229C230.567 62.5905 229.54 62.4193 229.54 61.6608C229.54 61.0369 230.041 60.67 230.775 60.67C231.607 60.67 232.182 61.0736 232.182 61.9177H236.5C236.451 59.202 234.237 57.3916 230.824 57.3916C227.387 57.3916 225.099 59.1286 225.099 61.8076C225.099 65.0615 227.852 65.6854 229.931 66.0279C231.216 66.2359 232.231 66.4561 232.231 67.239C232.231 67.9362 231.595 68.2788 230.91 68.2788C230.029 68.2788 229.356 67.8262 229.356 66.8475H224.916C224.977 69.7467 227.203 71.6672 230.849 71.6672Z" fill="#4E3604"/>
</svg>
